<svg id="visual" viewBox="0 0 960 540" width="960" height="540" xmlns="http://www.w3.org/2000/svg" xmlns:xlink="http://www.w3.org/1999/xlink" version="1.1"><path d="M0 404L22.8 399.2C45.7 394.3 91.3 384.7 137 383C182.7 381.3 228.3 387.7 274 389C319.7 390.3 365.3 386.7 411.2 377.5C457 368.3 503 353.7 548.8 344.5C594.7 335.3 640.3 331.7 686 331C731.7 330.3 777.3 332.7 823 337.5C868.7 342.3 914.3 349.7 937.2 353.3L960 357L960 541L937.2 541C914.3 541 868.7 541 823 541C777.3 541 731.7 541 686 541C640.3 541 594.7 541 548.8 541C503 541 457 541 411.2 541C365.3 541 319.7 541 274 541C228.3 541 182.7 541 137 541C91.3 541 45.7 541 22.8 541L0 541Z" fill="#de5499"></path><path d="M0 376L22.8 382.5C45.7 389 91.3 402 137 406.3C182.7 410.7 228.3 406.3 274 407.5C319.7 408.7 365.3 415.3 411.2 411.7C457 408 503 394 548.8 382.8C594.7 371.7 640.3 363.3 686 362.3C731.7 361.3 777.3 367.7 823 377.8C868.7 388 914.3 402 937.2 409L960 416L960 541L937.2 541C914.3 541 868.7 541 823 541C777.3 541 731.7 541 686 541C640.3 541 594.7 541 548.8 541C503 541 457 541 411.2 541C365.3 541 319.7 541 274 541C228.3 541 182.7 541 137 541C91.3 541 45.7 541 22.8 541L0 541Z" fill="#ec7c9b"></path><path d="M0 438L22.8 439C45.7 440 91.3 442 137 440.3C182.7 438.7 228.3 433.3 274 432C319.7 430.7 365.3 433.3 411.2 438.3C457 443.3 503 450.7 548.8 446.8C594.7 443 640.3 428 686 421.8C731.7 415.7 777.3 418.3 823 420.7C868.7 423 914.3 425 937.2 426L960 427L960 541L937.2 541C914.3 541 868.7 541 823 541C777.3 541 731.7 541 686 541C640.3 541 594.7 541 548.8 541C503 541 457 541 411.2 541C365.3 541 319.7 541 274 541C228.3 541 182.7 541 137 541C91.3 541 45.7 541 22.8 541L0 541Z" fill="#f3a3a9"></path><path d="M0 464L22.8 463.3C45.7 462.7 91.3 461.3 137 462.7C182.7 464 228.3 468 274 464.2C319.7 460.3 365.3 448.7 411.2 445.5C457 442.3 503 447.7 548.8 452.7C594.7 457.7 640.3 462.3 686 464.5C731.7 466.7 777.3 466.3 823 468.3C868.7 470.3 914.3 474.7 937.2 476.8L960 479L960 541L937.2 541C914.3 541 868.7 541 823 541C777.3 541 731.7 541 686 541C640.3 541 594.7 541 548.8 541C503 541 457 541 411.2 541C365.3 541 319.7 541 274 541C228.3 541 182.7 541 137 541C91.3 541 45.7 541 22.8 541L0 541Z" fill="#f4c8c3"></path><path d="M0 502L22.8 498.7C45.7 495.3 91.3 488.7 137 487.5C182.7 486.3 228.3 490.7 274 494.5C319.7 498.3 365.3 501.7 411.2 503.3C457 505 503 505 548.8 502C594.7 499 640.3 493 686 487.7C731.7 482.3 777.3 477.7 823 478.8C868.7 480 914.3 487 937.2 490.5L960 494L960 541L937.2 541C914.3 541 868.7 541 823 541C777.3 541 731.7 541 686 541C640.3 541 594.7 541 548.8 541C503 541 457 541 411.2 541C365.3 541 319.7 541 274 541C228.3 541 182.7 541 137 541C91.3 541 45.7 541 22.8 541L0 541Z" fill="#f2ebe9"></path></svg>